<?xml version="1.0" encoding="UTF-8"?>
<!DOCTYPE svg PUBLIC "-//W3C//DTD SVG 1.1//EN" "http://www.w3.org/Graphics/SVG/1.1/DTD/svg11.dtd">
<!-- Creator: CorelDRAW X7 -->
<svg xmlns="http://www.w3.org/2000/svg" xml:space="preserve" width="211.667mm" height="67.7332mm" version="1.1" style="shape-rendering:geometricPrecision; text-rendering:geometricPrecision; image-rendering:optimizeQuality; fill-rule:evenodd; clip-rule:evenodd"
viewBox="0 0 9078 2905"
 xmlns:xlink="http://www.w3.org/1999/xlink">
 <defs>
  <style type="text/css">
   <![CDATA[
    .fil0 {fill:none}
    .fil2 {fill:#00C25D}
    .fil3 {fill:#58B560}
    .fil4 {fill:#64C76B}
    .fil1 {fill:black;fill-rule:nonzero}
   ]]>
  </style>
 </defs>
 <g id="Layer_x0020_1">
  <metadata id="CorelCorpID_0Corel-Layer"/>
  <g id="_755787976">
   <polygon class="fil0" points="0,0 9078,0 9078,2905 0,2905 "/>
   <path class="fil1" d="M3791 822c-36,0 -68,-7 -96,-22 -27,-14 -49,-34 -65,-59 -12,-17 -20,-38 -26,-62 -6,-24 -9,-45 -10,-61 0,-17 -1,-41 -1,-72 0,-25 0,-44 1,-57 0,-13 2,-29 4,-48 3,-19 7,-36 12,-51 13,-36 35,-65 66,-87 30,-22 66,-33 106,-33 39,0 74,11 105,33 31,22 53,51 66,88 8,21 13,41 15,62 1,21 2,51 2,93l0 16 -307 0c0,22 0,39 1,52 1,13 3,29 7,47 4,18 10,33 18,46 22,32 56,49 102,49 41,0 86,-12 133,-37l27 62c-55,27 -109,41 -160,41zm109 -321c0,-38 -5,-68 -13,-90 -9,-23 -22,-41 -41,-54 -19,-14 -40,-20 -64,-20 -26,0 -47,6 -66,20 -18,13 -31,31 -39,54 -9,23 -13,53 -14,90l237 0zm517 313l-79 0 -110 -208 -109 208 -79 0 149 -270 -147 -266 79 0 107 205 108 -205 78 0 -146 266 149 270zm291 -544c31,0 60,8 86,22 25,15 46,34 60,58 16,25 26,52 30,81 5,30 7,68 7,115 0,47 -2,86 -7,115 -4,29 -14,57 -30,82 -14,24 -35,43 -60,57 -26,15 -55,22 -86,22 -52,0 -96,-22 -133,-65l0 262 -70 0 0 -741 70 0 0 57c37,-43 81,-65 133,-65zm86 115c-22,-32 -54,-48 -96,-48 -41,0 -73,16 -95,48 -12,17 -20,38 -23,63 -3,24 -5,57 -5,98 0,41 2,74 5,99 3,24 11,45 23,62 22,32 54,49 95,49 42,0 74,-17 96,-49 11,-17 19,-38 22,-62 4,-25 6,-58 6,-99 0,-41 -2,-74 -6,-98 -3,-25 -11,-46 -22,-63zm324 368l11 63c-13,4 -27,6 -43,6 -25,0 -46,-11 -63,-33 -12,-15 -18,-38 -18,-70l0 -646 70 0 0 646c0,15 2,25 5,30 4,4 9,7 16,7 7,0 14,-1 22,-3zm361 -377c-21,-26 -52,-39 -92,-39 -40,0 -71,13 -93,39 -8,10 -15,22 -20,34 -5,13 -9,28 -11,45 -2,17 -3,31 -3,42 -1,12 -1,28 -1,49 0,21 0,38 1,49 0,11 1,26 3,43 2,16 6,31 11,44 5,13 12,24 20,35 22,26 53,39 93,39 40,0 71,-13 92,-39 9,-11 16,-22 21,-35 5,-13 8,-28 10,-44 2,-17 4,-32 4,-43 1,-11 1,-28 1,-49 0,-21 0,-37 -1,-49 0,-11 -2,-25 -4,-42 -2,-17 -5,-32 -10,-45 -5,-12 -12,-24 -21,-34zm-176 -89c25,-11 53,-17 84,-17 31,0 58,6 84,17 25,12 45,27 62,46 12,14 22,30 30,47 7,17 12,36 15,57 3,21 5,38 6,52 0,14 1,33 1,57 0,25 -1,44 -1,57 -1,14 -3,31 -6,52 -3,21 -8,40 -15,57 -8,17 -18,33 -30,48 -17,18 -37,33 -62,45 -26,11 -53,17 -84,17 -31,0 -59,-6 -84,-17 -25,-12 -46,-27 -62,-45 -12,-15 -22,-31 -30,-48 -7,-17 -13,-36 -16,-57 -3,-21 -4,-38 -5,-52 -1,-13 -1,-32 -1,-57 0,-24 0,-43 1,-57 1,-14 2,-31 5,-52 3,-21 9,-40 16,-57 8,-17 18,-33 30,-47 16,-19 37,-34 62,-46zm465 48c17,-22 35,-38 54,-49 19,-10 40,-16 65,-16 13,0 27,2 43,6l-10 65c-18,-3 -32,-4 -42,-4 -24,0 -44,6 -62,18 -17,12 -30,27 -37,48 -7,17 -11,48 -11,93l0 318 -70 0 0 -536 70 0 0 57zm418 487c-36,0 -68,-7 -96,-22 -27,-14 -49,-34 -65,-59 -12,-17 -20,-38 -26,-62 -6,-24 -9,-45 -10,-61 -1,-17 -1,-41 -1,-72 0,-25 0,-44 1,-57 0,-13 2,-29 4,-48 3,-19 7,-36 12,-51 13,-36 35,-65 66,-87 30,-22 65,-33 105,-33 40,0 75,11 106,33 31,22 53,51 66,88 8,21 13,41 14,62 2,21 3,51 3,93l0 16 -307 0c0,22 0,39 1,52 0,13 3,29 7,47 4,18 10,33 18,46 22,32 56,49 102,49 41,0 85,-12 133,-37l26 62c-55,27 -108,41 -159,41zm109 -321c-1,-38 -5,-68 -13,-90 -9,-23 -22,-41 -41,-54 -19,-14 -40,-20 -65,-20 -25,0 -46,6 -65,20 -18,13 -31,31 -39,54 -9,23 -13,53 -14,90l237 0z"/>
   <path class="fil1" d="M3567 2313l68 -120c137,76 257,114 361,114 41,0 78,-6 110,-17 33,-11 59,-25 78,-42 20,-17 36,-38 49,-61 13,-23 22,-45 26,-67 5,-22 7,-44 7,-66 0,-50 -12,-96 -36,-136 -24,-41 -64,-70 -118,-90 -27,-9 -69,-20 -127,-31 -58,-11 -102,-21 -131,-31 -83,-28 -147,-73 -191,-134 -45,-61 -67,-131 -67,-209 0,-101 36,-187 108,-256 71,-70 169,-104 292,-104 109,0 233,31 371,94l-60 123c-122,-57 -225,-85 -311,-85 -81,0 -142,22 -183,67 -41,44 -62,97 -62,161 0,49 13,93 39,133 26,40 66,69 120,86 24,8 66,18 126,30 59,11 104,22 136,34 83,30 145,76 187,137 41,62 62,132 62,211 0,51 -9,100 -27,146 -18,46 -44,86 -78,122 -35,36 -79,65 -135,86 -55,21 -117,32 -185,32 -77,0 -150,-11 -218,-34 -68,-23 -139,-54 -211,-93zm1073 -1308l149 0 0 953 436 -561 174 0 -398 507 408 518 -179 0 -322 -420 -119 148 0 272 -149 0 0 -1417zm882 1804l33 -123c34,9 65,13 95,13 47,0 87,-12 118,-36 13,-9 24,-21 34,-35 10,-15 17,-28 21,-39 5,-12 11,-28 18,-50l37 -115 -389 -1027 154 0 300 838 255 -838 151 0 -374 1175c-13,42 -28,77 -43,104 -16,28 -36,53 -62,74 -60,51 -133,76 -220,76 -38,0 -80,-6 -128,-17zm1428 -1427c73,0 140,18 200,55 60,37 104,89 132,155 10,23 17,49 21,78 5,29 8,53 9,73 0,20 1,49 1,87l0 592 -150 0 0 -583c0,-60 -1,-103 -4,-130 -2,-27 -9,-52 -21,-77 -19,-39 -47,-70 -86,-91 -39,-22 -83,-32 -132,-32 -49,0 -93,10 -131,32 -39,21 -68,52 -86,91 -12,25 -19,50 -22,77 -3,27 -4,70 -4,130l0 583 -149 0 0 -1025 149 0 0 108c78,-82 169,-123 273,-123zm1018 1055c-77,0 -145,-14 -204,-41 -59,-28 -105,-65 -140,-114 -24,-33 -43,-73 -55,-119 -12,-46 -19,-85 -21,-117 -2,-32 -2,-77 -2,-137 0,-48 0,-85 1,-110 1,-25 4,-55 10,-91 6,-36 14,-68 25,-97 28,-70 75,-125 140,-167 65,-41 140,-62 226,-62 84,0 159,21 225,63 65,42 113,97 141,167 17,40 27,79 31,119 3,39 5,98 5,177l0 32 -656 0c0,41 1,74 3,99 1,25 6,55 15,90 9,35 22,64 39,87 46,63 118,94 217,94 88,0 182,-23 284,-69l56 117c-117,53 -231,79 -340,79zm233 -615c-2,-72 -11,-129 -29,-171 -18,-44 -47,-78 -87,-104 -40,-26 -85,-38 -137,-38 -54,0 -100,12 -139,38 -39,26 -67,60 -85,103 -18,44 -27,102 -29,172l506 0zm417 313l0 -621 -149 0 0 -117 149 0 0 -221 149 0 0 221 198 0 0 117 -198 0 0 621c0,68 3,109 9,123 15,35 44,52 85,52 33,0 71,-10 114,-31l57 118c-62,27 -123,40 -180,40 -57,0 -105,-13 -143,-39 -39,-26 -66,-63 -80,-111 -7,-24 -11,-74 -11,-152z"/>
   <path class="fil2" d="M56 1082l1780 1306c-427,121 -785,79 -1109,-244 -130,-129 -222,-302 -262,-481 -18,-81 -333,-277 -419,-323 -4,636 289,1157 890,1404 312,127 657,135 976,31 127,-42 784,-337 476,-515 -475,-275 -1012,-532 -1502,-792 -205,-109 -704,-335 -830,-386z"/>
   <path class="fil2" d="M152 883l349 184c342,-1005 2000,-894 1991,452l-1268 -336c-5,6 1178,466 1287,515 160,72 229,11 253,-97l0 -289c-7,-61 -17,-118 -23,-160 -122,-795 -809,-1198 -1580,-1071 -224,37 -444,140 -616,286 -221,186 -243,300 -393,516z"/>
   <path class="fil2" d="M696 1168l3 -7 6 5 -9 2zm-13 -7l13 7c192,139 743,408 979,526 164,81 324,179 488,260 105,53 412,277 506,166 161,-192 -236,-280 -352,-326 -180,-72 -361,-142 -542,-214 -281,-113 -821,-362 -1086,-426l-6 7z"/>
   <path class="fil3" d="M683 1161l6 -7c-18,-16 -54,-27 -79,-33 14,20 50,35 73,40z"/>
   <polygon class="fil4" points="696,1168 705,1166 699,1161 "/>
   <polygon class="fil3" points="610,1121 608,1115 603,1119 "/>
   <polygon class="fil4" points="689,1154 683,1161 "/>
  </g>
 </g>
</svg>
